<svg id="MASTER" xmlns="http://www.w3.org/2000/svg" xmlns:xlink="http://www.w3.org/1999/xlink" viewBox="0 0 612 792"><defs><style>.cls-1,.cls-4{fill:none;}.cls-2{clip-path:url(#clip-path);}.cls-3{opacity:0.5;}.cls-4,.cls-7,.cls-8{stroke:#292c52;stroke-miterlimit:10;}.cls-5,.cls-7{fill:#c9c9c9;}.cls-6{fill:#292c52;}.cls-8{fill:#fff;stroke-width:7px;}.cls-9{font-size:128px;fill:#5467aa;font-family:AvenirNext-Regular, Avenir Next;}.cls-10{font-size:14px;fill:#231f20;font-family:FiraCode-Light, Fira Code;}</style><clipPath id="clip-path"><rect class="cls-1" width="612" height="792"/></clipPath></defs><title>Artboard 1</title><g class="cls-2"><g id="Layer_1" data-name="Layer 1"><g class="cls-3"><path class="cls-4" d="M107.35-159.9c80.85-1.43,163.39,44,232.63,80.58,133.36,70.41,260.39,153,387.45,234C763.27,436.54,765.93,799,541.13,1011,196.44,717.58-131.21,406.41-467.15,103.36-350.24,124.69-226.9,125.42-117,75-13.79,27.63,59.14-58.82,107.35-159.9Z"/><path class="cls-4" d="M-337.61,117.44c133.31,106,261.5,218.42,390.76,329.24C239.52,606.46,427,764.91,617.46,919.79"/><path class="cls-4" d="M-220.64,107.87c126,85.73,244.73,182.1,363.77,277C320.5,526.3,497.37,668.31,676.56,807.42"/><path class="cls-4" d="M-116.95,75C.66,140,109.48,221.49,217.49,301,385.05,424.33,550.55,550.46,717.75,674.28"/><path class="cls-4" d="M-27.26,19.16C80.6,62.81,179.44,130.78,275.53,195.38c157,105.53,310.35,216.39,464.87,325.43"/><path class="cls-4" d="M47.74-59.26C143.86-37.19,233.1,18.06,316.57,68.46c145.59,87.91,286.12,184.23,427.27,279"/><path class="cls-4" d="M579.11,61c16.5,266.33-14.44,597.12-257.27,760.57"/><path class="cls-4" d="M450.34-17.3C447.23,239.12,379.88,530,124.58,646.28"/><path class="cls-4" d="M340-79.33C327,53.83,295.27,189.74,217.47,301,152.13,394.38,58.18,457.16-51.78,486"/><path class="cls-4" d="M246.81-124.3C222.62-2.69,177.55,118.28,89.14,208.19,9.27,289.42-96.17,330.82-208.39,341.54"/><path class="cls-4" d="M169.67-151.4c-35.76,111-94.64,215.61-191.6,284-95,67-210.21,86.95-324.51,81.13"/></g><path class="cls-5" d="M613,1037.18a244.22,244.22,0,1,1,172.7-71.53A242.63,242.63,0,0,1,613,1037.18Z"/><path class="cls-6" d="M613,552.22a240,240,0,1,1-93.7,18.91A239.22,239.22,0,0,1,613,552.22m0-7c-136.82,0-247.73,110.91-247.73,247.73S476.13,1040.68,613,1040.68,860.68,929.77,860.68,793,749.77,545.22,613,545.22Z"/><line class="cls-7" x1="751.53" y1="545.22" x2="474.37" y2="545.22"/><circle class="cls-7" cx="474.37" cy="545.22" r="1.9"/><line class="cls-7" x1="365.22" y1="933.42" x2="365.22" y2="656.27"/><circle class="cls-7" cx="365.22" cy="656.27" r="1.9"/><rect class="cls-8" x="-128.26" y="613.04" width="408.12" height="271.7" rx="80.84" ry="80.84"/></g><g id="Text"><text class="cls-9" transform="translate(47.92 100.37)">curves <tspan x="0" y="153.6">in a </tspan><tspan x="0" y="307.2">digital </tspan><tspan x="0" y="460.8">world</tspan></text><text class="cls-10" transform="translate(26.11 671.27)">Extended Essay: Mathematics</text><text class="cls-10" transform="translate(26.11 695.67)">Druid Hills High School</text><text class="cls-10" transform="translate(26.11 720.08)">Name: Tynan Purdy</text><text class="cls-10" transform="translate(26.11 744.49)">Session: May 2019</text></g></g></svg>